<svg xmlns="http://www.w3.org/2000/svg" width="800" height="450" viewBox="0 0 800 450">
  <defs>
    <radialGradient id="bg10" cx="50%" cy="50%" r="70%">
      <stop offset="0%" stop-color="#1a0f00"/>
      <stop offset="100%" stop-color="#030303"/>
    </radialGradient>
    <filter id="glow10"><feGaussianBlur stdDeviation="4" result="blur"/><feMerge><feMergeNode in="blur"/><feMergeNode in="SourceGraphic"/></feMerge></filter>
  </defs>
  <rect width="800" height="450" fill="url(#bg10)"/>
  <rect x="50" y="90" width="90" height="28" rx="4" fill="#f59e0b20" stroke="#f59e0b60" stroke-width="1"/>
  <text x="95" y="109" text-anchor="middle" font-family="monospace" font-size="11" fill="#f59e0b">"Great"</text>
  <rect x="155" y="90" width="95" height="28" rx="4" fill="#f59e0b15" stroke="#f59e0b40" stroke-width="1"/>
  <text x="202" y="109" text-anchor="middle" font-family="monospace" font-size="11" fill="#f59e0b80">"product"</text>
  <rect x="264" y="90" width="85" height="28" rx="4" fill="#f59e0b20" stroke="#f59e0b60" stroke-width="1"/>
  <text x="306" y="109" text-anchor="middle" font-family="monospace" font-size="11" fill="#f59e0b">"loved"</text>
  <rect x="363" y="90" width="60" height="28" rx="4" fill="#f59e0b10" stroke="#f59e0b30" stroke-width="1"/>
  <text x="393" y="109" text-anchor="middle" font-family="monospace" font-size="11" fill="#f59e0b60">"it"</text>
  <rect x="90" y="160" width="360" height="120" rx="8" fill="#f59e0b08" stroke="#f59e0b40" stroke-width="1.5" filter="url(#glow10)"/>
  <text x="270" y="185" text-anchor="middle" font-family="monospace" font-size="10" fill="#f59e0b50">BERT ENCODER</text>
  <circle cx="155" cy="220" r="20" fill="none" stroke="#f59e0b" stroke-width="1.5" filter="url(#glow10)"/>
  <circle cx="215" cy="220" r="20" fill="none" stroke="#f59e0b80" stroke-width="1" filter="url(#glow10)"/>
  <circle cx="275" cy="220" r="20" fill="none" stroke="#f59e0b" stroke-width="1.5" filter="url(#glow10)"/>
  <circle cx="335" cy="220" r="20" fill="none" stroke="#f59e0b60" stroke-width="1" filter="url(#glow10)"/>
  <circle cx="395" cy="220" r="20" fill="none" stroke="#f59e0b" stroke-width="1.5" filter="url(#glow10)"/>
  <line x1="155" y1="220" x2="275" y2="220" stroke="#f59e0b20" stroke-width="0.8"/>
  <line x1="215" y1="220" x2="395" y2="220" stroke="#f59e0b15" stroke-width="0.8"/>
  <line x1="155" y1="220" x2="395" y2="220" stroke="#f59e0b15" stroke-width="0.5"/>
  <line x1="450" y1="220" x2="520" y2="180" stroke="#f59e0b40" stroke-width="1.5" stroke-dasharray="4,2"/>
  <line x1="450" y1="220" x2="520" y2="230" stroke="#f59e0b40" stroke-width="1.5" stroke-dasharray="4,2"/>
  <line x1="450" y1="220" x2="520" y2="280" stroke="#f59e0b30" stroke-width="1" stroke-dasharray="4,2"/>
  <text x="530" y="148" font-family="monospace" font-size="10" fill="#66666680">POSITIVE</text>
  <rect x="530" y="158" width="200" height="22" rx="3" fill="#22c55e15" stroke="#22c55e40" stroke-width="1"/>
  <rect x="530" y="158" width="175" height="22" rx="3" fill="#22c55e30" filter="url(#glow10)"/>
  <text x="738" y="173" font-family="monospace" font-size="10" fill="#22c55e">87%</text>
  <text x="530" y="208" font-family="monospace" font-size="10" fill="#66666680">NEUTRAL</text>
  <rect x="530" y="218" width="200" height="22" rx="3" fill="#f59e0b10" stroke="#f59e0b30" stroke-width="1"/>
  <rect x="530" y="218" width="55" height="22" rx="3" fill="#f59e0b25" filter="url(#glow10)"/>
  <text x="738" y="233" font-family="monospace" font-size="10" fill="#f59e0b">10%</text>
  <text x="530" y="268" font-family="monospace" font-size="10" fill="#66666680">NEGATIVE</text>
  <rect x="530" y="278" width="200" height="22" rx="3" fill="#ef444410" stroke="#ef444430" stroke-width="1"/>
  <rect x="530" y="278" width="20" height="22" rx="3" fill="#ef444425"/>
  <text x="738" y="293" font-family="monospace" font-size="10" fill="#ef4444">3%</text>
  <polyline points="50,370 100,360 150,380 200,355 250,375 300,358 350,378 400,350 450,372 500,355 550,375 600,360 650,380 700,358 750,375" stroke="#f59e0b20" stroke-width="1.5" fill="none"/>
  <text x="400" y="418" text-anchor="middle" font-family="monospace" font-size="10" fill="#f59e0b40">BERT · CUSTOMER SENTIMENT · FINE-TUNED</text>
</svg>
